<svg xmlns="http://www.w3.org/2000/svg" x="0px" y="0px" viewBox="0 0 864 864" enable-background="new 0 0 864 864"><style>.ls0{fill:#0088c2}</style><g class="ls0"><g><path d="M453.2,556.4v69.7c0,7.2-4.5,11.7-11.7,11.7H230.2c-7.2,0-11.7-4.5-11.7-11.7V625c0-7.2,4.5-11.7,11.7-11.7h22.3V272.2 h-22.3c-7.2,0-11.7-4.5-11.7-11.7v-1.1c0-7.2,4.5-11.7,11.7-11.7h100.9c7.2,0,11.7,4.5,11.7,11.7v1.1c0,7.2-4.5,11.7-11.7,11.7 h-22.3v341.1h115.9v-56.9c0-6.1,3.9-10,10-10h8.4C449.3,546.4,453.2,550.3,453.2,556.4z"/></g><g><path d="M689.5,424.2v0.3c0,3.4-3.5,5.4-8.6,5.4h-60.8c-5.1,0-8.6-2-8.6-5.4v-0.3c0-3.4,3.5-5.7,8.6-5.7h11.6l-11.1-42.2h-55.7 l-12.2,42.2h9.1c5.1,0,8.1,2.4,8.1,5.7v0.3c0,3.4-3,5.4-8.1,5.4h-38c-5.1,0-8.6-2-8.6-5.4v-0.3c0-3.4,3.5-5.7,8.6-5.7h12.7 L585.7,253c0.5-3.4,4.1-4.7,9.1-4.7h0.5h0.5h0.5h16.2c4.6,0,8.1,1.4,9.1,4.7l49.1,165.4h10.1C685.9,418.4,689.5,420.8,689.5,424.2z M618.1,365.4l-23.3-88.8l-26.3,88.8H618.1z"/></g><g><path d="M687.7,631.2v0.3c0,3.4-3,5.4-8.1,5.4h-57.2c-5.1,0-8.1-2-8.1-5.4v-0.3c0-3.4,3-5.7,8.1-5.7h9.1L591,544.1l-15.7,17.2v64.1 h11.1c5.1,0,8.1,2.4,8.1,5.7v0.3c0,3.4-3,5.4-8.1,5.4h-61.3c-5.1,0-8.1-2-8.1-5.4v-0.3c0-3.4,3-5.7,8.1-5.7h10.6V466.8h-10.6 c-5.1,0-8.1-2.4-8.1-5.7v-0.3c0-3.4,3-5.4,8.1-5.4h61.3c5.1,0,8.1,2,8.1,5.4v0.3c0,3.4-3,5.7-8.1,5.7h-11.1v72.2l66.8-72.2H633 c-5.1,0-8.1-2.4-8.1-5.7v-0.3c0-3.4,3-5.4,8.1-5.4h45.6c5.1,0,8.1,2,8.1,5.4v0.3c0,3.4-3,5.7-8.1,5.7h-16.7l-49.6,54l54.2,104.6 h13.2C684.7,625.5,687.7,627.9,687.7,631.2z"/></g></g></svg>