<svg width="600" height="400" viewBox="0 0 600 400" xmlns="http://www.w3.org/2000/svg" role="img" aria-labelledby="title desc">
  <title id="title">Async Parser Architecture</title>
  <desc id="desc">Abstract illustration for asynchronous file parser project using Redis queues and PostgreSQL storage.</desc>
  <defs>
    <linearGradient id="gradient" x1="0%" y1="0%" x2="100%" y2="100%">
      <stop offset="0%" stop-color="#0f172a" />
      <stop offset="100%" stop-color="#1d4ed8" />
    </linearGradient>
    <linearGradient id="highlight" x1="0%" y1="0%" x2="0%" y2="100%">
      <stop offset="0%" stop-color="#60a5fa" stop-opacity="0.9" />
      <stop offset="100%" stop-color="#a855f7" stop-opacity="0.9" />
    </linearGradient>
  </defs>
  <rect width="600" height="400" fill="url(#gradient)" rx="24" />
  <g fill="none" stroke="rgba(255,255,255,0.15)" stroke-width="1.5">
    <path d="M60 80h160v80H60zM220 120h160v120H220zM380 60h160v80H380zM140 240h160v100H140z" />
    <path d="M140 120l80 0M300 120l80-40M300 200l80 0M220 200l-80 80M300 280l80 60" />
  </g>
  <g fill="#f8fafc" font-family="'Inter', 'Segoe UI', sans-serif">
    <text x="70" y="120" font-size="24" font-weight="600">Upload</text>
    <text x="240" y="160" font-size="24" font-weight="600">Workers</text>
    <text x="400" y="110" font-size="24" font-weight="600">Redis</text>
    <text x="200" y="320" font-size="24" font-weight="600">Postgres</text>
  </g>
  <circle cx="520" cy="300" r="70" fill="url(#highlight)" opacity="0.85" />
  <text x="520" y="306" text-anchor="middle" font-family="'Inter', 'Segoe UI', sans-serif" font-size="28" font-weight="700" fill="#0f172a">Async</text>
  <text x="520" y="338" text-anchor="middle" font-family="'Inter', 'Segoe UI', sans-serif" font-size="18" fill="#0f172a">Parser</text>
</svg>
