<svg width="600" height="400" viewBox="0 0 600 400" xmlns="http://www.w3.org/2000/svg" role="img" aria-labelledby="title desc">
  <title id="title">DocQueryAI</title>
  <desc id="desc">Visual representing a document question-answering pipeline with embeddings and vector search.</desc>
  <defs>
    <linearGradient id="docGradient" x1="0%" y1="0%" x2="100%" y2="100%">
      <stop offset="0%" stop-color="#22c55e" />
      <stop offset="100%" stop-color="#15803d" />
    </linearGradient>
    <linearGradient id="bgGradient" x1="0%" y1="0%" x2="0%" y2="100%">
      <stop offset="0%" stop-color="#0f172a" />
      <stop offset="100%" stop-color="#1f2937" />
    </linearGradient>
  </defs>
  <rect width="600" height="400" rx="28" fill="url(#bgGradient)" />
  <g transform="translate(80 60)">
    <rect width="160" height="220" rx="16" fill="rgba(15,118,110,0.25)" stroke="rgba(45,212,191,0.6)" stroke-width="2" />
    <rect x="24" y="36" width="112" height="16" rx="8" fill="rgba(94,234,212,0.6)" />
    <rect x="24" y="72" width="92" height="12" rx="6" fill="rgba(45,212,191,0.4)" />
    <rect x="24" y="100" width="108" height="12" rx="6" fill="rgba(45,212,191,0.25)" />
    <rect x="24" y="128" width="76" height="12" rx="6" fill="rgba(45,212,191,0.25)" />
    <rect x="24" y="156" width="120" height="12" rx="6" fill="rgba(94,234,212,0.25)" />
  </g>
  <g transform="translate(280 80)" fill="none" stroke="#bbf7d0" stroke-width="2.5" stroke-linecap="round">
    <path d="M0 120c48-80 128-80 176 0" opacity="0.5" />
    <path d="M0 150c48-60 128-60 176 0" opacity="0.3" />
    <path d="M0 180c48-40 128-40 176 0" opacity="0.2" />
  </g>
  <g transform="translate(280 120)" fill="url(#docGradient)">
    <circle cx="0" cy="0" r="32" opacity="0.75" />
    <circle cx="88" cy="32" r="28" opacity="0.6" />
    <circle cx="168" cy="-8" r="36" opacity="0.85" />
  </g>
  <g transform="translate(280 220)">
    <rect width="220" height="96" rx="20" fill="rgba(34,197,94,0.18)" stroke="rgba(134,239,172,0.6)" stroke-width="2" />
    <text x="110" y="54" text-anchor="middle" font-family="'Inter', 'Segoe UI', sans-serif" font-size="26" fill="#bbf7d0" font-weight="600">Ask your documents</text>
  </g>
  <text x="60" y="340" font-family="'Inter', 'Segoe UI', sans-serif" font-size="30" fill="#bbf7d0" font-weight="600">Local RAG · Streamlit · Ollama</text>
</svg>
