<svg width="600" height="400" viewBox="0 0 600 400" xmlns="http://www.w3.org/2000/svg" role="img" aria-labelledby="title desc">
  <title id="title">Password Generator MCP Server</title>
  <desc id="desc">Stylized illustration representing secure password generation tools for Claude MCP.</desc>
  <defs>
    <radialGradient id="bg" cx="50%" cy="50%" r="70%">
      <stop offset="0%" stop-color="#0ea5e9" />
      <stop offset="60%" stop-color="#0369a1" />
      <stop offset="100%" stop-color="#0f172a" />
    </radialGradient>
    <linearGradient id="chip" x1="0%" y1="0%" x2="100%" y2="100%">
      <stop offset="0%" stop-color="#f8fafc" stop-opacity="0.85" />
      <stop offset="100%" stop-color="#cbd5f5" stop-opacity="0.95" />
    </linearGradient>
  </defs>
  <rect width="600" height="400" rx="32" fill="url(#bg)" />
  <g transform="translate(140 80)">
    <rect width="320" height="200" rx="24" fill="rgba(15,23,42,0.5)" stroke="rgba(148,163,184,0.7)" stroke-width="2" />
    <rect x="36" y="48" width="248" height="56" rx="14" fill="rgba(14,165,233,0.25)" stroke="rgba(56,189,248,0.7)" />
    <text x="160" y="83" text-anchor="middle" font-family="'Inter', 'Segoe UI', sans-serif" font-size="26" fill="#e0f2fe" font-weight="600">A9f#Xk!2</text>
    <rect x="36" y="124" width="248" height="56" rx="14" fill="rgba(236,72,153,0.2)" stroke="rgba(236,72,153,0.6)" />
    <text x="160" y="158" text-anchor="middle" font-family="'Inter', 'Segoe UI', sans-serif" font-size="22" fill="#fce7f3" font-weight="500">passphrase: aurora-harbor</text>
  </g>
  <g transform="translate(460 280)" fill="url(#chip)">
    <rect x="-40" y="-40" width="80" height="80" rx="16" />
    <path d="M-60 -8h40v16h-40zM20 -8h40v16H20zM-8 -60h16v40h-16zM-8 20h16v40h-16z" opacity="0.6" />
  </g>
  <text x="60" y="340" font-family="'Inter', 'Segoe UI', sans-serif" font-size="28" fill="#f8fafc" font-weight="600">Claude MCP · Security Automation</text>
</svg>
